<svg version="1.1" baseProfile="tiny" id="Layer_1" xmlns="http://www.w3.org/2000/svg" xmlns:xlink="http://www.w3.org/1999/xlink" x="0px" y="0px" viewBox="0 0 311.6 78" preserveAspectRatio="xMinYMin meet" xml:space="preserve">
				<path id="shrug" fill="none" stroke-linejoin="round" stroke-miterlimit="10" d="M18.5,13.2H-0.3 M24.7,7.3l22.3,60.4 M91.6,72.6H50 M110.4,6.5L110.4,6.5c-15.3,20.2-15.3,48,0,68.2l0,0 M200.5,74.7L200.5,74.7 c15.3-20.2,15.3-48,0-68.2l0,0 M137.1,65c0,0,36.8-11.9,47.9-59l4.6,1.5 M155.2,25.8c-1.1-13.1-5-23.5-5-23.5 M132.3,29.5 c-1.6-10.8-7.7-22.3-7.7-22.3 M292.9,13.2h18.7 M264.3,67.6l22.3-60.4 M261.3,72.6h-41.5"></path>
			</svg>
