<?xml version="1.0" encoding="UTF-8" standalone="no"?>
<!-- Created with Inkscape (http://www.inkscape.org/) -->

<svg
   xmlns:dc="http://purl.org/dc/elements/1.1/"
   xmlns:cc="http://creativecommons.org/ns#"
   xmlns:rdf="http://www.w3.org/1999/02/22-rdf-syntax-ns#"
   xmlns:svg="http://www.w3.org/2000/svg"
   xmlns="http://www.w3.org/2000/svg"
   xmlns:sodipodi="http://sodipodi.sourceforge.net/DTD/sodipodi-0.dtd"
   xmlns:inkscape="http://www.inkscape.org/namespaces/inkscape"
   width="480mm"
   height="297mm"
   viewBox="0 0 1700.7874 1052.3622"
   id="svg2"
   version="1.1"
   inkscape:version="0.91 r13725"
   sodipodi:docname="welcome.svg">
  <defs
     id="defs4" />
  <sodipodi:namedview
     id="base"
     pagecolor="#ffffff"
     bordercolor="#666666"
     borderopacity="1.0"
     inkscape:pageopacity="0.0"
     inkscape:pageshadow="2"
     inkscape:zoom="0.35355339"
     inkscape:cx="821.26513"
     inkscape:cy="546.19245"
     inkscape:document-units="px"
     inkscape:current-layer="layer1"
     showgrid="false"
     inkscape:window-width="1440"
     inkscape:window-height="772"
     inkscape:window-x="0"
     inkscape:window-y="1"
     inkscape:window-maximized="1" />
  <metadata
     id="metadata7">
    <rdf:RDF>
      <cc:Work
         rdf:about="">
        <dc:format>image/svg+xml</dc:format>
        <dc:type
           rdf:resource="http://purl.org/dc/dcmitype/StillImage" />
        <dc:title></dc:title>
      </cc:Work>
    </rdf:RDF>
  </metadata>
  <g
     inkscape:label="Calque 1"
     inkscape:groupmode="layer"
     id="layer1">
    <path
       style="fill:#f2f8fe;fill-opacity:0.21003137;fill-rule:evenodd;stroke:none;stroke-width:0.89844185px;stroke-linecap:butt;stroke-linejoin:miter;stroke-opacity:1"
       d="m 13.52093,216.40198 271.6362,0 0,297.82686 327.73488,0 0,-89.96854 330.68749,0 171.2205,-103.86948 197.8503,0 0,246.57817 129.913,0 0,-524.299325 259.8259,0 0,1011.370335 -1700.678539,0 0,-840.74039 z"
       id="path7562"
       inkscape:connector-curvature="0" />
    <path
       inkscape:connector-curvature="0"
       id="path7564"
       d="m 588.7094,839.93447 84.87002,205.11543 317.34015,0 88.56003,-204.32037"
       style="fill:#f2f8fe;fill-opacity:1;fill-rule:evenodd;stroke:#b8d9fa;stroke-width:3.17315364;stroke-linecap:round;stroke-linejoin:round;stroke-miterlimit:4;stroke-dasharray:none;stroke-opacity:1" />
    <rect
       style="opacity:0.98000004;fill:#f2f8fe;fill-opacity:1;stroke:#b8d9fa;stroke-width:2.51296711;stroke-linecap:round;stroke-linejoin:round;stroke-miterlimit:4;stroke-dasharray:none;stroke-dashoffset:10;stroke-opacity:1"
       id="rect7566"
       width="577.62665"
       height="36.144753"
       x="547.15778"
       y="829.14062"
       ry="0" />
    <g
       transform="matrix(2.0890362,0,0,2.0890362,-306.62409,92.666676)"
       id="g5713">
      <rect
         style="opacity:1;fill:#f2f8fe;fill-opacity:1;stroke:#b8d9fa;stroke-width:1;stroke-linecap:round;stroke-linejoin:miter;stroke-miterlimit:4;stroke-dasharray:none;stroke-opacity:1"
         id="rect5715"
         width="41.42857"
         height="41.42857"
         x="340"
         y="188.07649" />
      <path
         style="fill:#deedfc;fill-opacity:1;fill-rule:evenodd;stroke:none;stroke-width:1px;stroke-linecap:butt;stroke-linejoin:miter;stroke-opacity:1"
         d="m 380.84056,188.66077 -40.33921,40.33921 40.33921,0 z"
         id="path5717"
         inkscape:connector-curvature="0" />
    </g>
    <g
       transform="matrix(2.0890362,0,0,2.0890362,-303.41872,230.70143)"
       id="g5725">
      <rect
         style="opacity:1;fill:#f2f8fe;fill-opacity:1;stroke:#b8d9fa;stroke-width:1;stroke-linecap:round;stroke-linejoin:miter;stroke-miterlimit:4;stroke-dasharray:none;stroke-opacity:1"
         id="rect5727"
         width="41.42857"
         height="41.42857"
         x="340"
         y="188.07649" />
      <path
         style="fill:#deedfc;fill-opacity:1;fill-rule:evenodd;stroke:none;stroke-width:1px;stroke-linecap:butt;stroke-linejoin:miter;stroke-opacity:1"
         d="m 380.84056,188.66077 -40.33921,40.33921 40.33921,0 z"
         id="path5729"
         inkscape:connector-curvature="0" />
    </g>
    <g
       id="g5731"
       transform="matrix(2.0890362,0,0,2.0890362,-9.6347475,230.70143)">
      <rect
         y="188.07649"
         x="340"
         height="41.42857"
         width="41.42857"
         id="rect5733"
         style="opacity:1;fill:#f2f8fe;fill-opacity:1;stroke:#b8d9fa;stroke-width:1;stroke-linecap:round;stroke-linejoin:miter;stroke-miterlimit:4;stroke-dasharray:none;stroke-opacity:1" />
      <path
         inkscape:connector-curvature="0"
         id="path5735"
         d="m 380.84056,188.66077 -40.33921,40.33921 40.33921,0 z"
         style="fill:#deedfc;fill-opacity:1;fill-rule:evenodd;stroke:none;stroke-width:1px;stroke-linecap:butt;stroke-linejoin:miter;stroke-opacity:1" />
    </g>
    <g
       transform="matrix(2.0890362,0,0,2.0890362,149.01124,230.70143)"
       id="g5737">
      <rect
         style="opacity:1;fill:#f2f8fe;fill-opacity:1;stroke:#b8d9fa;stroke-width:1;stroke-linecap:round;stroke-linejoin:miter;stroke-miterlimit:4;stroke-dasharray:none;stroke-opacity:1"
         id="rect5739"
         width="41.42857"
         height="41.42857"
         x="340"
         y="188.07649" />
      <path
         style="fill:#deedfc;fill-opacity:1;fill-rule:evenodd;stroke:none;stroke-width:1px;stroke-linecap:butt;stroke-linejoin:miter;stroke-opacity:1"
         d="m 380.84056,188.66077 -40.33921,40.33921 40.33921,0 z"
         id="path5741"
         inkscape:connector-curvature="0" />
    </g>
    <g
       id="g5743"
       transform="matrix(2.0890362,0,0,2.0890362,318.00369,230.70143)">
      <rect
         y="188.07649"
         x="340"
         height="41.42857"
         width="41.42857"
         id="rect5745"
         style="opacity:1;fill:#f2f8fe;fill-opacity:1;stroke:#b8d9fa;stroke-width:1;stroke-linecap:round;stroke-linejoin:miter;stroke-miterlimit:4;stroke-dasharray:none;stroke-opacity:1" />
      <path
         inkscape:connector-curvature="0"
         id="path5747"
         d="m 380.84056,188.66077 -40.33921,40.33921 40.33921,0 z"
         style="fill:#deedfc;fill-opacity:1;fill-rule:evenodd;stroke:none;stroke-width:1px;stroke-linecap:butt;stroke-linejoin:miter;stroke-opacity:1" />
    </g>
    <g
       transform="matrix(1.9029222,0.86195086,-0.86195086,1.9029222,902.66256,-17.053299)"
       id="g5749">
      <rect
         style="opacity:1;fill:#f2f8fe;fill-opacity:1;stroke:#b8d9fa;stroke-width:1;stroke-linecap:round;stroke-linejoin:miter;stroke-miterlimit:4;stroke-dasharray:none;stroke-opacity:1"
         id="rect5751"
         width="41.42857"
         height="41.42857"
         x="340"
         y="188.07649" />
      <path
         style="fill:#deedfc;fill-opacity:1;fill-rule:evenodd;stroke:none;stroke-width:1px;stroke-linecap:butt;stroke-linejoin:miter;stroke-opacity:1"
         d="m 380.84056,188.66077 -40.33921,40.33921 40.33921,0 z"
         id="path5753"
         inkscape:connector-curvature="0" />
    </g>
    <rect
       style="opacity:1;fill:#f2f8fe;fill-opacity:1;stroke:#b8d9fa;stroke-width:3.17315364;stroke-linecap:round;stroke-linejoin:miter;stroke-miterlimit:4;stroke-dasharray:none;stroke-opacity:1"
       id="rect5755"
       width="1092.4714"
       height="104.26077"
       x="271.17368"
       y="725.31396"
       ry="52.130383" />
    <circle
       style="opacity:1;fill:#ffffff;fill-opacity:1;stroke:#b8d9fa;stroke-width:2.27241945;stroke-linecap:round;stroke-linejoin:miter;stroke-miterlimit:4;stroke-dasharray:none;stroke-opacity:1"
       id="path5757"
       cx="322.806"
       cy="776.61432"
       r="41.318825" />
    <circle
       r="41.318825"
       cy="776.61432"
       cx="1311.0167"
       id="circle5759"
       style="opacity:1;fill:#ffffff;fill-opacity:1;stroke:#b8d9fa;stroke-width:2.27241945;stroke-linecap:round;stroke-linejoin:miter;stroke-miterlimit:4;stroke-dasharray:none;stroke-opacity:1" />
    <g
       id="g6106"
       transform="matrix(2.0890362,0,0,2.0890362,-154.65874,230.70143)">
      <rect
         y="188.07649"
         x="340"
         height="41.42857"
         width="41.42857"
         id="rect6108"
         style="opacity:1;fill:#f2f8fe;fill-opacity:1;stroke:#b8d9fa;stroke-width:1;stroke-linecap:round;stroke-linejoin:miter;stroke-miterlimit:4;stroke-dasharray:none;stroke-opacity:1" />
      <path
         inkscape:connector-curvature="0"
         id="path6110"
         d="m 380.84056,188.66077 -40.33921,40.33921 40.33921,0 z"
         style="fill:#deedfc;fill-opacity:1;fill-rule:evenodd;stroke:none;stroke-width:1px;stroke-linecap:butt;stroke-linejoin:miter;stroke-opacity:1" />
    </g>
    <rect
       style="opacity:1;fill:none;fill-opacity:1;stroke:#a6cef7;stroke-width:5.29553318;stroke-linecap:round;stroke-linejoin:miter;stroke-miterlimit:4;stroke-dasharray:15.88660002, 15.88660002;stroke-dashoffset:10;stroke-opacity:1"
       id="rect6112"
       width="485.06155"
       height="177.34607"
       x="671.3576"
       y="578.37543"
       ry="24.115934" />
    <path
       style="fill:#f4f9fe;fill-opacity:1;fill-rule:evenodd;stroke:#c0dcf9;stroke-width:1.85941839px;stroke-linecap:butt;stroke-linejoin:miter;stroke-opacity:1"
       d="m 289.52975,323.80906 94.85229,133.6196 0,47.42747 49.15373,0 25.82925,0 49.14968,0 0,-47.42747 94.85632,-133.6196 -144.006,0 -25.82925,0 -144.00602,0 z"
       id="path6114"
       inkscape:connector-curvature="0" />
    <g
       transform="matrix(2.0890362,0,0,2.0890362,484.68289,230.70143)"
       id="g6119">
      <rect
         style="opacity:1;fill:#f2f8fe;fill-opacity:1;stroke:#b8d9fa;stroke-width:1;stroke-linecap:round;stroke-linejoin:miter;stroke-miterlimit:4;stroke-dasharray:none;stroke-opacity:1"
         id="rect6121"
         width="41.42857"
         height="41.42857"
         x="340"
         y="188.07649" />
      <path
         style="fill:#deedfc;fill-opacity:1;fill-rule:evenodd;stroke:none;stroke-width:1px;stroke-linecap:butt;stroke-linejoin:miter;stroke-opacity:1"
         d="m 380.84056,188.66077 -40.33921,40.33921 40.33921,0 z"
         id="path6123"
         inkscape:connector-curvature="0" />
    </g>
    <circle
       style="opacity:1;fill:#f2f8fe;fill-opacity:1;stroke:#b8d9fa;stroke-width:6.34630728;stroke-linecap:round;stroke-linejoin:round;stroke-miterlimit:4;stroke-dasharray:19.03892207, 19.03892207;stroke-dashoffset:10;stroke-opacity:1"
       id="path6129"
       cx="196.19394"
       cy="185.22372"
       r="48.08054" />
    <circle
       r="48.08054"
       cy="79.446579"
       cx="340.43555"
       id="circle6131"
       style="opacity:1;fill:#f2f8fe;fill-opacity:1;stroke:#b8d9fa;stroke-width:6.34630728;stroke-linecap:round;stroke-linejoin:round;stroke-miterlimit:4;stroke-dasharray:19.03892207, 19.03892207;stroke-dashoffset:10;stroke-opacity:1" />
    <circle
       style="opacity:1;fill:#f2f8fe;fill-opacity:1;stroke:#b8d9fa;stroke-width:6.34630728;stroke-linecap:round;stroke-linejoin:round;stroke-miterlimit:4;stroke-dasharray:19.03892207, 19.03892207;stroke-dashoffset:10;stroke-opacity:1"
       id="circle6133"
       cx="539.16846"
       cy="69.830475"
       r="48.08054" />
    <circle
       r="48.08054"
       cy="156.37541"
       cx="712.2583"
       id="circle6135"
       style="opacity:1;fill:#f2f8fe;fill-opacity:1;stroke:#b8d9fa;stroke-width:6.34630728;stroke-linecap:round;stroke-linejoin:round;stroke-miterlimit:4;stroke-dasharray:19.03892207, 19.03892207;stroke-dashoffset:10;stroke-opacity:1" />
    <g
       id="g6621"
       transform="matrix(1.9604648,1.9604648,-1.9604648,1.9604648,709.67481,115.38589)"
       style="opacity:0.98000004;fill:#499bee;fill-opacity:1">
      <path
         id="path6607"
         d="M 10.5,16 C 9.673,16 9,15.327 9,14.5 9,13.673 9.673,13 10.5,13 c 0.827,0 1.5,0.673 1.5,1.5 0,0.827 -0.673,1.5 -1.5,1.5 z m 0,-2 C 10.224,14 10,14.224 10,14.5 10,14.776 10.224,15 10.5,15 10.776,15 11,14.776 11,14.5 11,14.224 10.776,14 10.5,14 Z"
         inkscape:connector-curvature="0"
         style="fill:#499bee;fill-opacity:1" />
      <path
         id="path6609"
         d="m 7.053,12.968 c -0.086,0 -0.174,-0.022 -0.254,-0.07 C 6.561,12.758 6.482,12.451 6.623,12.213 7.014,11.551 7.572,10.997 8.235,10.61 8.92,10.211 9.703,10 10.499,10 c 0.796,0 1.58,0.211 2.264,0.61 0.664,0.387 1.221,0.942 1.612,1.603 0.141,0.238 0.062,0.544 -0.176,0.685 -0.238,0.141 -0.544,0.062 -0.685,-0.176 C 12.886,11.66 11.731,11 10.498,11 9.265,11 8.11,11.66 7.482,12.722 7.389,12.88 7.222,12.968 7.051,12.968 Z"
         inkscape:connector-curvature="0"
         style="fill:#499bee;fill-opacity:1" />
      <path
         id="path6611"
         d="m 16.107,10.808 c -0.152,0 -0.302,-0.069 -0.401,-0.2 C 14.465,8.951 12.567,8 10.5,8 8.433,8 6.535,8.95 5.294,10.608 c -0.166,0.221 -0.479,0.266 -0.7,0.1 -0.221,-0.166 -0.266,-0.479 -0.1,-0.7 0.684,-0.913 1.581,-1.67 2.594,-2.189 1.063,-0.544 2.211,-0.82 3.412,-0.82 1.201,0 2.35,0.276 3.412,0.82 1.013,0.518 1.91,1.275 2.594,2.189 0.166,0.221 0.121,0.534 -0.1,0.7 -0.09,0.067 -0.195,0.1 -0.299,0.1 z"
         inkscape:connector-curvature="0"
         style="fill:#499bee;fill-opacity:1" />
      <path
         id="path6613"
         d="M 18.243,8.671 C 18.098,8.671 17.955,8.608 17.856,8.488 16.042,6.271 13.361,5 10.5,5 7.639,5 4.958,6.271 3.144,8.488 2.969,8.702 2.654,8.733 2.44,8.558 2.226,8.383 2.195,8.068 2.37,7.854 4.375,5.404 7.338,3.999 10.5,3.999 c 3.162,0 6.125,1.405 8.13,3.855 0.175,0.214 0.143,0.529 -0.07,0.704 -0.093,0.076 -0.205,0.113 -0.316,0.113 z"
         inkscape:connector-curvature="0"
         style="fill:#499bee;fill-opacity:1" />
    </g>
    <path
       inkscape:connector-curvature="0"
       d="m 528.04635,87.282881 c -0.26337,0 -0.52992,-0.06664 -0.76791,-0.199908 -0.50453,-0.279238 -0.81867,-0.812328 -0.81867,-1.386669 l 0,-31.731536 c 0,-0.577514 0.31414,-1.107431 0.81867,-1.386668 0.50454,-0.279238 1.12013,-0.263372 1.60879,0.04125 l 25.38523,15.865768 c 0.46328,0.288757 0.74569,0.799635 0.74569,1.345417 0,0.545783 -0.28241,1.05666 -0.74569,1.345417 l -25.38523,15.865769 c -0.25702,0.16183 -0.54895,0.241159 -0.84088,0.241159 z m 1.58657,-30.455929 0,26.007168 20.80637,-13.003584 -20.80637,-13.003584 z"
       id="path7163"
       style="fill:#499aee;fill-opacity:1" />
    <path
       id="path7547"
       d="m 352.77876,90.687897 -21.32689,0 c -7.05069,0 -12.78845,-5.73776 -12.78845,-12.788475 0,-7.050684 5.73776,-12.788444 12.78845,-12.788444 3.41453,0 6.68624,1.370485 9.07982,3.783256 0.18753,-0.413494 0.41774,-0.809948 0.6927,-1.182952 1.20211,-1.628367 3.12676,-2.600304 5.14736,-2.600304 3.52534,0 6.39422,2.86888 6.39422,6.394222 0,0.748134 -0.1301,1.479197 -0.37941,2.167644 0.1301,-0.0063 0.2602,-0.0095 0.3922,-0.0095 4.69335,0 8.51284,3.819493 8.51284,8.512873 0,4.693348 -3.81949,8.512842 -8.51284,8.512842 z M 331.45187,67.242385 c -5.8763,0 -10.65704,4.780737 -10.65704,10.657037 0,5.876299 4.78074,10.657036 10.65704,10.657036 l 21.32689,0 c 3.51893,0 6.38143,-2.86247 6.38143,-6.381434 0,-3.518932 -2.8625,-6.381434 -6.38143,-6.381434 -0.75451,0 -1.48986,0.130099 -2.18684,0.383666 -0.46465,0.170398 -0.9847,-0.0021 -1.25752,-0.41562 -0.2729,-0.413493 -0.22181,-0.959149 0.11931,-1.319365 0.76092,-0.80138 1.18082,-1.843666 1.18082,-2.939197 0,-2.350958 -1.91189,-4.262815 -4.26281,-4.262815 -1.36839,0 -2.6195,0.633012 -3.43158,1.734954 -0.49022,0.664997 -0.77796,1.445117 -0.82699,2.252907 -0.0285,0.451857 -0.33889,0.837649 -0.77371,0.959149 -0.43481,0.121532 -0.90158,-0.04252 -1.16162,-0.411368 -0.2345,-0.332514 -0.4881,-0.654336 -0.75452,-0.952739 -2.02269,-2.276357 -4.92781,-3.582903 -7.97147,-3.582903 z"
       inkscape:connector-curvature="0"
       style="fill:#57a2ef;fill-opacity:1" />
    <text
       xml:space="preserve"
       style="font-style:normal;font-weight:normal;font-size:59.5911026px;line-height:125%;font-family:sans-serif;letter-spacing:0px;word-spacing:0px;fill:#499aee;fill-opacity:1;stroke:none;stroke-width:1px;stroke-linecap:butt;stroke-linejoin:miter;stroke-opacity:1"
       x="184.65175"
       y="206.05869"
       id="text7558"
       sodipodi:linespacing="125%"><tspan
         sodipodi:role="line"
         id="tspan7560"
         x="184.65175"
         y="206.05869">t</tspan></text>
    <g
       id="g7568"
       transform="matrix(1.3565928,1.5886247,-1.5886247,1.3565928,1359.3414,-15.968144)">
      <rect
         y="188.07649"
         x="340"
         height="41.42857"
         width="41.42857"
         id="rect7570"
         style="opacity:1;fill:#f2f8fe;fill-opacity:1;stroke:#b8d9fa;stroke-width:1;stroke-linecap:round;stroke-linejoin:miter;stroke-miterlimit:4;stroke-dasharray:none;stroke-opacity:1" />
      <path
         inkscape:connector-curvature="0"
         id="path7572"
         d="m 380.84056,188.66077 -40.33921,40.33921 40.33921,0 z"
         style="fill:#deedfc;fill-opacity:1;fill-rule:evenodd;stroke:none;stroke-width:1px;stroke-linecap:butt;stroke-linejoin:miter;stroke-opacity:1" />
    </g>
    <path
       style="fill:#f2f8fe;fill-opacity:1;fill-rule:evenodd;stroke:#b8d9fa;stroke-width:3.17315364px;stroke-linecap:round;stroke-linejoin:round;stroke-opacity:1"
       d="m 1417.6306,840.94903 36.8617,206.74637 137.8309,0 38.4644,-205.94502"
       id="path6125"
       inkscape:connector-curvature="0" />
  </g>
</svg>
