<?xml version="1.0" encoding="UTF-8" standalone="no"?>
<!-- Created with Inkscape (http://www.inkscape.org/) -->

<svg
   xmlns:dc="http://purl.org/dc/elements/1.1/"
   xmlns:cc="http://creativecommons.org/ns#"
   xmlns:rdf="http://www.w3.org/1999/02/22-rdf-syntax-ns#"
   xmlns:svg="http://www.w3.org/2000/svg"
   xmlns="http://www.w3.org/2000/svg"
   xmlns:sodipodi="http://sodipodi.sourceforge.net/DTD/sodipodi-0.dtd"
   xmlns:inkscape="http://www.inkscape.org/namespaces/inkscape"
   width="240mm"
   height="267mm"
   viewBox="0 0 850.3937 946.06299"
   id="svg2"
   version="1.1"
   inkscape:version="0.91 r13725"
   sodipodi:docname="welcome.svg">
  <defs
     id="defs4" />
  <sodipodi:namedview
     id="base"
     pagecolor="#ffffff"
     bordercolor="#666666"
     borderopacity="1.0"
     inkscape:pageopacity="0.0"
     inkscape:pageshadow="2"
     inkscape:zoom="0.35355339"
     inkscape:cx="255.5797"
     inkscape:cy="546.19245"
     inkscape:document-units="px"
     inkscape:current-layer="layer1"
     showgrid="false"
     inkscape:window-width="1440"
     inkscape:window-height="772"
     inkscape:window-x="0"
     inkscape:window-y="1"
     inkscape:window-maximized="1" />
  <metadata
     id="metadata7">
    <rdf:RDF>
      <cc:Work
         rdf:about="">
        <dc:format>image/svg+xml</dc:format>
        <dc:type
           rdf:resource="http://purl.org/dc/dcmitype/StillImage" />
        <dc:title></dc:title>
      </cc:Work>
    </rdf:RDF>
  </metadata>
  <g
     inkscape:label="Calque 1"
     inkscape:groupmode="layer"
     id="layer1"
     transform="translate(0,-106.29921)">
    <g
       transform="matrix(2.0890362,0,0,2.0890362,-329.25151,262.3723)"
       id="g5713">
      <rect
         style="opacity:1;fill:#f2f8fe;fill-opacity:1;stroke:#b8d9fa;stroke-width:1;stroke-linecap:round;stroke-linejoin:miter;stroke-miterlimit:4;stroke-dasharray:none;stroke-opacity:1"
         id="rect5715"
         width="41.42857"
         height="41.42857"
         x="340"
         y="188.07649" />
      <path
         style="fill:#deedfc;fill-opacity:1;fill-rule:evenodd;stroke:none;stroke-width:1px;stroke-linecap:butt;stroke-linejoin:miter;stroke-opacity:1"
         d="m 380.84056,188.66077 -40.33921,40.33921 40.33921,0 z"
         id="path5717"
         inkscape:connector-curvature="0" />
    </g>
    <path
       style="fill:#f4f9fe;fill-opacity:1;fill-rule:evenodd;stroke:#c0dcf9;stroke-width:1.85941839px;stroke-linecap:butt;stroke-linejoin:miter;stroke-opacity:1"
       d="m 266.90233,493.51469 94.85229,133.6196 0,47.42747 49.15373,0 25.82925,0 49.14968,0 0,-47.42747 94.85632,-133.6196 -144.006,0 -25.82925,0 -144.00602,0 z"
       id="path6114"
       inkscape:connector-curvature="0" />
    <circle
       style="opacity:1;fill:#f2f8fe;fill-opacity:1;stroke:#b8d9fa;stroke-width:6.34630728;stroke-linecap:round;stroke-linejoin:round;stroke-miterlimit:4;stroke-dasharray:19.03892207, 19.03892207;stroke-dashoffset:10;stroke-opacity:1"
       id="path6129"
       cx="173.56653"
       cy="354.92935"
       r="48.08054" />
    <circle
       r="48.08054"
       cy="249.15221"
       cx="317.80814"
       id="circle6131"
       style="opacity:1;fill:#f2f8fe;fill-opacity:1;stroke:#b8d9fa;stroke-width:6.34630728;stroke-linecap:round;stroke-linejoin:round;stroke-miterlimit:4;stroke-dasharray:19.03892207, 19.03892207;stroke-dashoffset:10;stroke-opacity:1" />
    <circle
       style="opacity:1;fill:#f2f8fe;fill-opacity:1;stroke:#b8d9fa;stroke-width:6.34630728;stroke-linecap:round;stroke-linejoin:round;stroke-miterlimit:4;stroke-dasharray:19.03892207, 19.03892207;stroke-dashoffset:10;stroke-opacity:1"
       id="circle6133"
       cx="516.54102"
       cy="239.5361"
       r="48.08054" />
    <circle
       r="48.08054"
       cy="326.08102"
       cx="689.63086"
       id="circle6135"
       style="opacity:1;fill:#f2f8fe;fill-opacity:1;stroke:#b8d9fa;stroke-width:6.34630728;stroke-linecap:round;stroke-linejoin:round;stroke-miterlimit:4;stroke-dasharray:19.03892207, 19.03892207;stroke-dashoffset:10;stroke-opacity:1" />
    <g
       id="g6621"
       transform="matrix(1.9604648,1.9604648,-1.9604648,1.9604648,687.04739,285.09152)"
       style="opacity:0.98000004;fill:#499bee;fill-opacity:1">
      <path
         id="path6607"
         d="M 10.5,16 C 9.673,16 9,15.327 9,14.5 9,13.673 9.673,13 10.5,13 c 0.827,0 1.5,0.673 1.5,1.5 0,0.827 -0.673,1.5 -1.5,1.5 z m 0,-2 C 10.224,14 10,14.224 10,14.5 10,14.776 10.224,15 10.5,15 10.776,15 11,14.776 11,14.5 11,14.224 10.776,14 10.5,14 Z"
         inkscape:connector-curvature="0"
         style="fill:#499bee;fill-opacity:1" />
      <path
         id="path6609"
         d="m 7.053,12.968 c -0.086,0 -0.174,-0.022 -0.254,-0.07 C 6.561,12.758 6.482,12.451 6.623,12.213 7.014,11.551 7.572,10.997 8.235,10.61 8.92,10.211 9.703,10 10.499,10 c 0.796,0 1.58,0.211 2.264,0.61 0.664,0.387 1.221,0.942 1.612,1.603 0.141,0.238 0.062,0.544 -0.176,0.685 -0.238,0.141 -0.544,0.062 -0.685,-0.176 C 12.886,11.66 11.731,11 10.498,11 9.265,11 8.11,11.66 7.482,12.722 7.389,12.88 7.222,12.968 7.051,12.968 Z"
         inkscape:connector-curvature="0"
         style="fill:#499bee;fill-opacity:1" />
      <path
         id="path6611"
         d="m 16.107,10.808 c -0.152,0 -0.302,-0.069 -0.401,-0.2 C 14.465,8.951 12.567,8 10.5,8 8.433,8 6.535,8.95 5.294,10.608 c -0.166,0.221 -0.479,0.266 -0.7,0.1 -0.221,-0.166 -0.266,-0.479 -0.1,-0.7 0.684,-0.913 1.581,-1.67 2.594,-2.189 1.063,-0.544 2.211,-0.82 3.412,-0.82 1.201,0 2.35,0.276 3.412,0.82 1.013,0.518 1.91,1.275 2.594,2.189 0.166,0.221 0.121,0.534 -0.1,0.7 -0.09,0.067 -0.195,0.1 -0.299,0.1 z"
         inkscape:connector-curvature="0"
         style="fill:#499bee;fill-opacity:1" />
      <path
         id="path6613"
         d="M 18.243,8.671 C 18.098,8.671 17.955,8.608 17.856,8.488 16.042,6.271 13.361,5 10.5,5 7.639,5 4.958,6.271 3.144,8.488 2.969,8.702 2.654,8.733 2.44,8.558 2.226,8.383 2.195,8.068 2.37,7.854 4.375,5.404 7.338,3.999 10.5,3.999 c 3.162,0 6.125,1.405 8.13,3.855 0.175,0.214 0.143,0.529 -0.07,0.704 -0.093,0.076 -0.205,0.113 -0.316,0.113 z"
         inkscape:connector-curvature="0"
         style="fill:#499bee;fill-opacity:1" />
    </g>
    <path
       inkscape:connector-curvature="0"
       d="m 505.41893,256.98851 c -0.26337,0 -0.52992,-0.0666 -0.76791,-0.19991 -0.50453,-0.27924 -0.81867,-0.81233 -0.81867,-1.38667 l 0,-31.73153 c 0,-0.57752 0.31414,-1.10744 0.81867,-1.38667 0.50454,-0.27924 1.12013,-0.26337 1.60879,0.0413 l 25.38523,15.86577 c 0.46328,0.28875 0.74569,0.79963 0.74569,1.34541 0,0.54579 -0.28241,1.05666 -0.74569,1.34542 l -25.38523,15.86577 c -0.25702,0.16183 -0.54895,0.24116 -0.84088,0.24116 z m 1.58657,-30.45593 0,26.00717 20.80637,-13.00359 -20.80637,-13.00358 z"
       id="path7163"
       style="fill:#499aee;fill-opacity:1" />
    <path
       id="path7547"
       d="m 330.15134,260.39352 -21.32689,0 c -7.05069,0 -12.78845,-5.73776 -12.78845,-12.78847 0,-7.05068 5.73776,-12.78844 12.78845,-12.78844 3.41453,0 6.68624,1.37048 9.07982,3.78325 0.18753,-0.41349 0.41774,-0.80995 0.6927,-1.18295 1.20211,-1.62837 3.12676,-2.6003 5.14736,-2.6003 3.52534,0 6.39422,2.86888 6.39422,6.39422 0,0.74813 -0.1301,1.47919 -0.37941,2.16764 0.1301,-0.006 0.2602,-0.01 0.3922,-0.01 4.69335,0 8.51284,3.81949 8.51284,8.51287 0,4.69335 -3.81949,8.51285 -8.51284,8.51285 z m -21.32689,-23.44551 c -5.8763,0 -10.65704,4.78074 -10.65704,10.65704 0,5.8763 4.78074,10.65704 10.65704,10.65704 l 21.32689,0 c 3.51893,0 6.38143,-2.86247 6.38143,-6.38144 0,-3.51893 -2.8625,-6.38143 -6.38143,-6.38143 -0.75451,0 -1.48986,0.1301 -2.18684,0.38366 -0.46465,0.1704 -0.9847,-0.002 -1.25752,-0.41562 -0.2729,-0.41349 -0.22181,-0.95915 0.11931,-1.31936 0.76092,-0.80138 1.18082,-1.84367 1.18082,-2.9392 0,-2.35096 -1.91189,-4.26281 -4.26281,-4.26281 -1.36839,0 -2.6195,0.63301 -3.43158,1.73495 -0.49022,0.665 -0.77796,1.44512 -0.82699,2.25291 -0.0285,0.45185 -0.33889,0.83765 -0.77371,0.95915 -0.43481,0.12153 -0.90158,-0.0425 -1.16162,-0.41137 -0.2345,-0.33252 -0.4881,-0.65434 -0.75452,-0.95274 -2.02269,-2.27636 -4.92781,-3.5829 -7.97147,-3.5829 z"
       inkscape:connector-curvature="0"
       style="fill:#57a2ef;fill-opacity:1" />
    <text
       xml:space="preserve"
       style="font-style:normal;font-weight:normal;font-size:59.5911026px;line-height:125%;font-family:sans-serif;letter-spacing:0px;word-spacing:0px;fill:#499aee;fill-opacity:1;stroke:none;stroke-width:1px;stroke-linecap:butt;stroke-linejoin:miter;stroke-opacity:1"
       x="162.02434"
       y="375.76431"
       id="text7558"
       sodipodi:linespacing="125%"><tspan
         sodipodi:role="line"
         id="tspan7560"
         x="162.02434"
         y="375.76431">t</tspan></text>
    <g
       id="g7593"
       transform="matrix(2.0890362,0,0,2.0890362,-329.25151,381.16625)">
      <rect
         y="188.07649"
         x="340"
         height="41.42857"
         width="41.42857"
         id="rect7595"
         style="opacity:1;fill:#f2f8fe;fill-opacity:1;stroke:#b8d9fa;stroke-width:1;stroke-linecap:round;stroke-linejoin:miter;stroke-miterlimit:4;stroke-dasharray:none;stroke-opacity:1" />
      <path
         inkscape:connector-curvature="0"
         id="path7597"
         d="m 380.84056,188.66077 -40.33921,40.33921 40.33921,0 z"
         style="fill:#deedfc;fill-opacity:1;fill-rule:evenodd;stroke:none;stroke-width:1px;stroke-linecap:butt;stroke-linejoin:miter;stroke-opacity:1" />
    </g>
    <g
       transform="matrix(2.0890362,0,0,2.0890362,-329.25151,495.81805)"
       id="g7599">
      <rect
         style="opacity:1;fill:#f2f8fe;fill-opacity:1;stroke:#b8d9fa;stroke-width:1;stroke-linecap:round;stroke-linejoin:miter;stroke-miterlimit:4;stroke-dasharray:none;stroke-opacity:1"
         id="rect7601"
         width="41.42857"
         height="41.42857"
         x="340"
         y="188.07649" />
      <path
         style="fill:#deedfc;fill-opacity:1;fill-rule:evenodd;stroke:none;stroke-width:1px;stroke-linecap:butt;stroke-linejoin:miter;stroke-opacity:1"
         d="m 380.84056,188.66077 -40.33921,40.33921 40.33921,0 z"
         id="path7603"
         inkscape:connector-curvature="0" />
    </g>
    <path
       style="fill:none;fill-rule:evenodd;stroke:#e3e3e3;stroke-width:0.89279586px;stroke-linecap:butt;stroke-linejoin:miter;stroke-opacity:1"
       d="m 258.44566,387.61083 c 0,0 108.58394,30.30249 121.20998,93.4327"
       id="path7605"
       inkscape:connector-curvature="0" />
    <path
       inkscape:connector-curvature="0"
       id="path7607"
       d="m 351.29709,325.00698 c 0,0 47.2957,50.66195 52.79522,156.20764"
       style="fill:none;fill-rule:evenodd;stroke:#e3e3e3;stroke-width:0.7618717px;stroke-linecap:butt;stroke-linejoin:miter;stroke-opacity:1" />
    <path
       style="fill:none;fill-rule:evenodd;stroke:#e3e3e3;stroke-width:0.86825377px;stroke-linecap:butt;stroke-linejoin:miter;stroke-opacity:1"
       d="m 496.12835,322.64944 c 0,0 -60.51371,51.42559 -67.55018,158.56222"
       id="path7609"
       inkscape:connector-curvature="0" />
    <path
       inkscape:connector-curvature="0"
       id="path7611"
       d="m 605.80054,352.36189 c 0,0 -135.57715,41.74397 -151.34193,128.71057"
       style="fill:none;fill-rule:evenodd;stroke:#e3e3e3;stroke-width:1.1709013px;stroke-linecap:butt;stroke-linejoin:miter;stroke-opacity:1" />
  </g>
</svg>
